<?xml version="1.0" standalone="no"?><!DOCTYPE svg PUBLIC "-//W3C//DTD SVG 1.1//EN" "http://www.w3.org/Graphics/SVG/1.1/DTD/svg11.dtd"><svg width="100%" height="100%" viewBox="0 0 110 127" version="1.1" xmlns="http://www.w3.org/2000/svg" xmlns:xlink="http://www.w3.org/1999/xlink" xml:space="preserve" style="fill-rule:evenodd;clip-rule:evenodd;stroke-linejoin:round;stroke-miterlimit:1.41421;"><path id="path4016-3-8-6" d="M55.4215,0l1.1546,60.5452l54.267,-28.5407l-55.4216,-32.0045l-2.27374e-13,0ZM55.4215,0l-55.4215,32.0045l54.2669,28.5407l1.1546,-60.5452l-2.27374e-13,0ZM2.27374e-13,32.0045l0,63.991l51.8315,-31.2648l-51.8315,-32.7261ZM2.27374e-13,95.9955l55.4215,32.0045l-2.4354,-61.2668l-52.9861,29.2623l2.27374e-13,0ZM55.4215,128l55.4216,-32.0045l-53.004,-29.2623l-2.4176,61.2668ZM110.843,95.9955l0,-63.991l-51.8494,32.7261l51.8494,31.2648Z" style="fill:url(#tag1);fill-rule:nonzero;"/><defs><radialGradient id="tag1" cx="0" cy="0" r="1" gradientUnits="userSpaceOnUse" gradientTransform="matrix(55.4215,0,0,64,55.4215,64)"><stop offset="0%" style="stop-color:#ff4a04;stop-opacity:0.760784"/><stop offset="100%" style="stop-color:#ff4a04;stop-opacity:1"/></radialGradient></defs></svg>