<?xml version="1.0" standalone="no"?>
<!DOCTYPE svg PUBLIC "-//W3C//DTD SVG 1.1//EN" "http://www.w3.org/Graphics/SVG/1.1/DTD/svg11.dtd">
<svg width="100%" height="100%" viewBox="0 0 104 97" version="1.1" xmlns="http://www.w3.org/2000/svg" xmlns:xlink="http://www.w3.org/1999/xlink" xml:space="preserve" style="fill-rule:evenodd;clip-rule:evenodd;stroke-linejoin:round;stroke-miterlimit:1.41421;">
    <path d="M30.6914,0L0.0004,20.039L21.2214,37.033L52.1674,17.925L30.6914,0Z" style="fill:rgb(0,126,229);fill-rule:nonzero;"/>
    <path d="M0,54.0283L30.691,74.0673L52.167,56.1413L21.222,37.0333L0,54.0283Z" style="fill:rgb(0,126,229);fill-rule:nonzero;"/>
    <path d="M52.167,56.1416L73.644,74.0676L104.335,54.0286L83.113,37.0336L52.167,56.1416Z" style="fill:rgb(0,126,229);fill-rule:nonzero;"/>
    <path d="M104.335,20.0391L73.644,0.0001L52.167,17.9251L83.113,37.0331L104.335,20.0391Z" style="fill:rgb(0,126,229);fill-rule:nonzero;"/>
    <path d="M52.2305,59.9981L30.6915,77.8711L21.4745,71.8531L21.4745,78.6001L52.2305,97.0431L82.9865,78.6001L82.9865,71.8531L73.7695,77.8711L52.2305,59.9981Z" style="fill:rgb(0,126,229);fill-rule:nonzero;"/>
</svg>
