<?xml version="1.0" standalone="no"?>
<!DOCTYPE svg PUBLIC "-//W3C//DTD SVG 1.1//EN" "http://www.w3.org/Graphics/SVG/1.1/DTD/svg11.dtd">
<svg width="100%" height="100%" viewBox="0 0 511 442" version="1.1" xmlns="http://www.w3.org/2000/svg" xmlns:xlink="http://www.w3.org/1999/xlink" xml:space="preserve" style="fill-rule:evenodd;clip-rule:evenodd;stroke-linejoin:round;stroke-miterlimit:1.41421;">
    <path d="M166.23,0.109552L166.67,0.0995519L166.71,0.589552L166.15,0.609552L166.23,0.109552Z" style="fill:rgb(11,162,94);fill-rule:nonzero;"/>
    <path d="M164.52,3.38955C164.91,2.82955 165.67,1.70955 166.06,1.14955L166.76,1.03955C167.28,7.37955 169.14,13.4896 170.54,19.6596C176.56,46.4696 182.64,73.2596 188.97,99.9896C193.12,118.32 197.75,136.56 201.55,154.96C204.85,166.35 206.62,178.1 209.81,189.51C211.87,200.15 215.1,210.53 216.83,221.23C216.13,222.4 215.43,223.58 214.72,224.75C214.55,225.02 214.19,225.58 214.02,225.86L213.76,226.31C213.72,226.39 213.63,226.56 213.58,226.64C213.19,227.36 212.41,228.79 212.02,229.5C211.95,229.63 211.8,229.89 211.72,230.02L211.01,231.28C210.92,231.43 210.75,231.72 210.67,231.87L209.84,233.32C209.8,233.4 209.71,233.56 209.66,233.64L208.63,235.44C208.54,235.59 208.36,235.91 208.27,236.07C208.17,236.24 207.97,236.57 207.87,236.74L206.86,238.48C206.78,238.61 206.62,238.89 206.54,239.02L205.92,240.07C205.82,240.25 205.6,240.62 205.5,240.8C205.1,241.49 204.31,242.87 203.91,243.57C203.84,243.69 203.69,243.94 203.62,244.07L202.99,245.12C202.89,245.31 202.67,245.67 202.56,245.86C202.19,246.51 201.43,247.8 201.06,248.45C200.97,248.6 200.8,248.91 200.71,249.06L199.96,250.41C199.89,250.53 199.75,250.78 199.68,250.9L198.91,252.25C198.83,252.39 198.67,252.67 198.59,252.81C198.19,253.47 197.41,254.8 197.02,255.47C196.93,255.62 196.75,255.93 196.66,256.09L195.95,257.37C195.88,257.49 195.75,257.72 195.69,257.84L194.87,259.26C194.8,259.39 194.65,259.64 194.58,259.76C194.16,260.48 193.33,261.91 192.91,262.63C192.84,262.76 192.68,263.02 192.6,263.15L192,264.14C191.9,264.32 191.69,264.67 191.59,264.85C191.21,265.51 190.46,266.82 190.08,267.48C190.02,267.59 189.88,267.83 189.82,267.94L189,269.4C188.94,269.51 188.82,269.72 188.76,269.83L187.92,271.3C187.85,271.41 187.71,271.65 187.64,271.76C187.25,272.42 186.46,273.72 186.07,274.38C185.96,274.55 185.76,274.91 185.65,275.09L185.06,276.19C184.98,276.33 184.83,276.61 184.76,276.74L183.73,278.52C183.65,278.67 183.47,278.97 183.39,279.12C183.3,279.26 183.14,279.55 183.06,279.69C181.37,282.54 179.84,285.48 177.97,288.22C167.32,305.59 157.52,323.5 147.21,341.08C130.47,370.05 113.75,399.02 97.01,427.99C94.5,432.5 91.64,436.82 89.48,441.53C89.37,441.69 89.15,442.01 89.04,442.17C85.03,436.39 81.93,430.01 78.26,424.01C61.52,395.02 44.77,366.04 28.04,337.04C18.74,320.73 9.05,304.62 0,288.16C35.84,226.31 71.52,164.35 107.29,102.46C107.32,102.4 107.39,102.29 107.42,102.23L108.4,100.55C108.44,100.48 108.52,100.34 108.57,100.27L109.56,98.5796C109.65,98.4296 109.83,98.1096 109.93,97.9596C110.03,97.7796 110.23,97.4296 110.33,97.2496L111.32,95.4896C111.39,95.3696 111.53,95.1296 111.6,95.0096L112.34,93.8296C112.47,93.6396 112.73,93.2496 112.86,93.0496C113.22,92.5096 113.95,91.4196 114.32,90.8796C114.36,90.6996 114.43,90.3496 114.47,90.1796L115.34,88.5096C115.38,88.4396 115.46,88.2996 115.5,88.2296L116.5,86.5496C116.6,86.3896 116.8,86.0496 116.9,85.8796C117.01,85.6896 117.23,85.2996 117.35,85.0996L118.19,83.6296C118.28,83.4696 118.46,83.1596 118.55,83.0096L119.25,81.7796C119.33,81.6496 119.49,81.3696 119.57,81.2296C119.96,80.5596 120.74,79.2196 121.14,78.5496C121.22,78.4096 121.38,78.1296 121.46,77.9896L122.19,76.6596C122.25,76.5596 122.37,76.3396 122.43,76.2396L123.39,74.5596C123.51,74.3596 123.76,73.9496 123.89,73.7496L124.54,72.7696C124.68,72.5696 124.95,72.1796 125.09,71.9896C125.21,71.7896 125.46,71.3896 125.59,71.1896L126.13,70.1496C126.31,69.7596 126.68,68.9796 126.86,68.5896L127.41,67.8196C127.51,67.6796 127.7,67.4096 127.8,67.2696C128.17,66.9596 128.92,66.3196 129.29,65.9996L129.22,64.8296C129.28,64.6896 129.42,64.4096 129.49,64.2696L130.34,62.5796C130.41,62.4596 130.55,62.2096 130.62,62.0896L131.37,60.8696C131.51,60.6696 131.78,60.2696 131.92,60.0696C132.26,59.5096 132.95,58.4096 133.29,57.8596C133.39,57.6596 133.57,57.2696 133.67,57.0696L134.2,55.9196C134.36,55.6196 134.7,55.0096 134.87,54.6996L135.53,53.7596C135.67,53.5696 135.95,53.1896 136.09,52.9996C136.21,52.7996 136.46,52.3996 136.58,52.1996L137.07,51.1696C137.18,50.9396 137.41,50.4696 137.52,50.2396L138.38,48.5796C138.51,48.3796 138.76,47.9596 138.88,47.7496L139.54,46.7696C139.68,46.5696 139.96,46.1896 140.1,45.9896C140.23,45.7896 140.48,45.3796 140.6,45.1796L141.11,44.1396C141.26,43.8496 141.55,43.2796 141.69,42.9896L142.37,41.8696C142.49,41.6796 142.73,41.2996 142.86,41.1096C143.22,40.5496 143.95,39.4296 144.32,38.8796C144.36,38.7096 144.45,38.3696 144.49,38.1996L145.36,36.5396C145.39,36.4696 145.47,36.3396 145.51,36.2696L146.51,34.5596C146.61,34.3896 146.8,34.0596 146.9,33.8896C147,33.7296 147.19,33.3896 147.29,33.2296L148.29,31.4796C148.33,31.4096 148.41,31.2696 148.45,31.1896L149.39,29.5596C149.44,29.4896 149.53,29.3396 149.57,29.2596L150.58,27.5596C150.67,27.3996 150.85,27.0996 150.94,26.9396C151.04,26.7696 151.24,26.4196 151.34,26.2396L152.3,24.5496C152.36,24.4396 152.48,24.2296 152.54,24.1296L153.35,22.8196C153.48,22.6296 153.74,22.2396 153.86,22.0496C154.23,21.4996 154.95,20.3996 155.32,19.8496C155.35,19.6796 155.43,19.3396 155.47,19.1696L156.32,17.5396C156.39,17.4196 156.54,17.1696 156.61,17.0396L157.37,15.8496C157.51,15.6596 157.77,15.2696 157.91,15.0696C158.26,14.5096 158.96,13.3996 159.31,12.8396C159.36,12.6796 159.45,12.3596 159.5,12.1996L160.38,10.5496C160.42,10.4696 160.5,10.3296 160.54,10.2496L161.56,8.52955C161.64,8.37955 161.82,8.07955 161.91,7.92955C162,7.75955 162.18,7.43955 162.27,7.27955L163.27,5.49955C163.32,5.42955 163.4,5.27955 163.44,5.20955L164.39,3.59955C164.42,3.54955 164.49,3.43955 164.52,3.38955Z" style="fill:rgb(11,162,94);fill-rule:nonzero;"/>
    <path id="#fccd48ff" d="M166.67,0.0995519C199.15,-0.0504481 231.64,0.0795519 264.13,0.0295519C291.01,0.129552 317.91,-0.180448 344.78,0.179552C345.31,1.19955 345.85,2.20955 346.42,3.21955C346.5,3.34955 346.65,3.62955 346.73,3.76955C349.33,8.29955 351.97,12.8096 354.54,17.3496C354.59,17.4296 354.67,17.5796 354.72,17.6496C359.7,26.1996 364.66,34.7596 369.55,43.3596C369.59,43.4296 369.68,43.5696 369.72,43.6496C370.61,45.1796 371.53,46.7096 372.44,48.2496C372.52,48.3796 372.67,48.6496 372.75,48.7896C374,50.9896 375.26,53.1796 376.53,55.3696C376.58,55.4396 376.66,55.5796 376.7,55.6596C377.97,57.8396 379.22,60.0396 380.48,62.2396C380.56,62.3696 380.71,62.6296 380.79,62.7596C382.06,64.8996 383.29,67.0596 384.51,69.2196C384.59,69.3496 384.74,69.6196 384.82,69.7496C396.76,90.3696 408.67,111 420.57,131.65C419.21,137.64 422.5,143.6 420.67,149.62C419.56,166.07 413.35,182.08 403.11,195C399.78,198.61 403.01,203.62 402.65,207.9C399.06,212.25 394.44,215.5 390.08,219.01C390.09,222.29 390.1,225.57 389.95,228.86C386.06,231.43 381.6,232.92 377.65,235.4C377.23,236.73 376.8,238.07 376.39,239.42C373.22,240.92 369.83,241.89 366.66,243.41C354.11,239.81 341.69,235.8 329.17,232.09C317.52,228.24 305.59,225.22 294.06,220.98L293.4,219.8C293.34,219.71 293.24,219.53 293.19,219.44L292.24,217.83C292.14,217.66 291.94,217.32 291.84,217.15C291.75,217 291.59,216.71 291.5,216.56C290.79,215.3 290.14,214.01 289.56,212.69L289.5,212.56L289.43,212.46C288.99,211.76 288.1,210.35 287.65,209.65C287.6,209.57 287.5,209.41 287.45,209.32L287.16,208.86C286.99,208.57 286.64,208 286.47,207.71C286.04,206.98 285.17,205.52 284.74,204.79C284.63,204.61 284.42,204.24 284.31,204.06L283.7,203.02C283.62,202.88 283.46,202.61 283.38,202.47L282.41,200.8C282.37,200.73 282.28,200.59 282.24,200.51L281.22,198.76C281.13,198.6 280.95,198.28 280.86,198.13C280.76,197.95 280.55,197.58 280.45,197.4L279.62,195.94C279.52,195.77 279.32,195.41 279.22,195.24L278.58,194.11C278.49,193.96 278.32,193.66 278.23,193.51C277.84,192.79 277.05,191.36 276.65,190.64C276.61,190.56 276.51,190.39 276.47,190.31L276.2,189.84C276.01,189.56 275.64,189 275.45,188.72C274.46,187.06 273.53,185.36 272.64,183.65C272.59,183.57 272.5,183.4 272.46,183.32L272.2,182.86C272.01,182.59 271.63,182.05 271.44,181.79C271,181 270.12,179.42 269.68,178.63C269.63,178.55 269.53,178.38 269.49,178.29L269.22,177.81C269.02,177.48 268.63,176.83 268.43,176.5L267.57,175.05C267.49,174.91 267.32,174.63 267.23,174.48C266.85,173.82 266.08,172.49 265.69,171.83C265.6,171.68 265.43,171.37 265.34,171.21C264.66,170.08 264.01,168.94 263.37,167.8C263.32,167.71 263.21,167.53 263.16,167.44L262.21,165.81C262.11,165.65 261.92,165.33 261.83,165.16C261.74,165.01 261.57,164.71 261.48,164.56L260.47,162.8C260.42,162.72 260.33,162.55 260.28,162.47L259.46,161C259.39,160.88 259.26,160.65 259.19,160.53C258.81,159.86 258.04,158.53 257.66,157.86C257.58,157.72 257.42,157.45 257.34,157.32C256.72,156.29 256.1,155.25 255.5,154.22C227.77,106.1 200,58.0096 172.21,9.91955C170.47,6.91955 168.89,3.79955 166.76,1.03955L166.71,0.589552L166.67,0.0995519Z" style="fill:rgb(252,205,72);fill-rule:nonzero;"/>
    <path d="M166.15,0.609552L166.71,0.589552L166.76,1.03955L166.06,1.14955L166.15,0.609552Z" style="fill:rgb(8,145,86);fill-rule:nonzero;"/>
    <path d="M166.76,1.03955C168.89,3.79955 170.47,6.91955 172.21,9.91955C200,58.0096 227.77,106.1 255.5,154.22C242.66,176.58 229.72,198.89 216.83,221.23C215.1,210.53 211.87,200.15 209.81,189.51C206.62,178.1 204.85,166.35 201.55,154.96C197.75,136.56 193.12,118.32 188.97,99.9896C182.64,73.2596 176.56,46.4696 170.54,19.6596C169.14,13.4896 167.28,7.37955 166.76,1.03955Z" style="fill:rgb(8,145,86);fill-rule:nonzero;"/>
    <path d="M164.39,3.59955C164.42,3.54955 164.49,3.43955 164.52,3.38955C164.49,3.43955 164.42,3.54955 164.39,3.59955Z" style="fill:rgb(8,145,86);fill-rule:nonzero;"/>
    <path d="M163.27,5.49955C163.32,5.42955 163.4,5.27955 163.44,5.20955C163.4,5.27955 163.32,5.42955 163.27,5.49955Z" style="fill:rgb(8,145,86);fill-rule:nonzero;"/>
    <path d="M161.91,7.92955C162,7.75955 162.18,7.43955 162.27,7.27955C162.18,7.43955 162,7.75955 161.91,7.92955Z" style="fill:rgb(8,145,86);fill-rule:nonzero;"/>
    <path d="M161.56,8.52955C161.64,8.37955 161.82,8.07955 161.91,7.92955C161.82,8.07955 161.64,8.37955 161.56,8.52955Z" style="fill:rgb(8,145,86);fill-rule:nonzero;"/>
    <path d="M160.38,10.5496C160.42,10.4696 160.5,10.3296 160.54,10.2496C160.5,10.3296 160.42,10.4696 160.38,10.5496Z" style="fill:rgb(8,145,86);fill-rule:nonzero;"/>
    <path d="M159.31,12.8396C159.36,12.6796 159.45,12.3596 159.5,12.1996C159.45,12.3596 159.36,12.6796 159.31,12.8396Z" style="fill:rgb(8,145,86);fill-rule:nonzero;"/>
    <path d="M157.91,15.0696C158.26,14.5096 158.96,13.3996 159.31,12.8396C158.96,13.3996 158.26,14.5096 157.91,15.0696Z" style="fill:rgb(8,145,86);fill-rule:nonzero;"/>
    <path d="M157.37,15.8496C157.51,15.6596 157.77,15.2696 157.91,15.0696C157.77,15.2696 157.51,15.6596 157.37,15.8496Z" style="fill:rgb(8,145,86);fill-rule:nonzero;"/>
    <path d="M156.32,17.5396C156.39,17.4196 156.54,17.1696 156.61,17.0396C156.54,17.1696 156.39,17.4196 156.32,17.5396Z" style="fill:rgb(8,145,86);fill-rule:nonzero;"/>
    <path d="M155.32,19.8496C155.35,19.6796 155.43,19.3396 155.47,19.1696C155.43,19.3396 155.35,19.6796 155.32,19.8496Z" style="fill:rgb(8,145,86);fill-rule:nonzero;"/>
    <path d="M153.86,22.0496C154.23,21.4996 154.95,20.3996 155.32,19.8496C154.95,20.3996 154.23,21.4996 153.86,22.0496Z" style="fill:rgb(8,145,86);fill-rule:nonzero;"/>
    <path d="M153.35,22.8196C153.48,22.6296 153.74,22.2396 153.86,22.0496C153.74,22.2396 153.48,22.6296 153.35,22.8196Z" style="fill:rgb(8,145,86);fill-rule:nonzero;"/>
    <path d="M152.3,24.5496C152.36,24.4396 152.48,24.2296 152.54,24.1296C152.48,24.2296 152.36,24.4396 152.3,24.5496Z" style="fill:rgb(8,145,86);fill-rule:nonzero;"/>
    <path d="M150.94,26.9396C151.04,26.7696 151.24,26.4196 151.34,26.2396C151.24,26.4196 151.04,26.7696 150.94,26.9396Z" style="fill:rgb(8,145,86);fill-rule:nonzero;"/>
    <path d="M150.58,27.5596C150.67,27.3996 150.85,27.0996 150.94,26.9396C150.85,27.0996 150.67,27.3996 150.58,27.5596Z" style="fill:rgb(8,145,86);fill-rule:nonzero;"/>
    <path d="M149.39,29.5596C149.44,29.4896 149.53,29.3396 149.57,29.2596C149.53,29.3396 149.44,29.4896 149.39,29.5596Z" style="fill:rgb(8,145,86);fill-rule:nonzero;"/>
    <path d="M148.29,31.4796C148.33,31.4096 148.41,31.2696 148.45,31.1896C148.41,31.2696 148.33,31.4096 148.29,31.4796Z" style="fill:rgb(8,145,86);fill-rule:nonzero;"/>
    <path d="M146.9,33.8896C147,33.7296 147.19,33.3896 147.29,33.2296C147.19,33.3896 147,33.7296 146.9,33.8896Z" style="fill:rgb(8,145,86);fill-rule:nonzero;"/>
    <path d="M146.51,34.5596C146.61,34.3896 146.8,34.0596 146.9,33.8896C146.8,34.0596 146.61,34.3896 146.51,34.5596Z" style="fill:rgb(8,145,86);fill-rule:nonzero;"/>
    <path d="M145.36,36.5396C145.39,36.4696 145.47,36.3396 145.51,36.2696C145.47,36.3396 145.39,36.4696 145.36,36.5396Z" style="fill:rgb(8,145,86);fill-rule:nonzero;"/>
    <path d="M144.32,38.8796C144.36,38.7096 144.45,38.3696 144.49,38.1996C144.45,38.3696 144.36,38.7096 144.32,38.8796Z" style="fill:rgb(8,145,86);fill-rule:nonzero;"/>
    <path d="M142.86,41.1096C143.22,40.5496 143.95,39.4296 144.32,38.8796C143.95,39.4296 143.22,40.5496 142.86,41.1096Z" style="fill:rgb(8,145,86);fill-rule:nonzero;"/>
    <path d="M142.37,41.8696C142.49,41.6796 142.73,41.2996 142.86,41.1096C142.73,41.2996 142.49,41.6796 142.37,41.8696Z" style="fill:rgb(8,145,86);fill-rule:nonzero;"/>
    <path d="M141.11,44.1396C141.26,43.8496 141.55,43.2796 141.69,42.9896C141.55,43.2796 141.26,43.8496 141.11,44.1396Z" style="fill:rgb(8,145,86);fill-rule:nonzero;"/>
    <path d="M140.1,45.9896C140.23,45.7896 140.48,45.3796 140.6,45.1796C140.48,45.3796 140.23,45.7896 140.1,45.9896Z" style="fill:rgb(8,145,86);fill-rule:nonzero;"/>
    <path d="M139.54,46.7696C139.68,46.5696 139.96,46.1896 140.1,45.9896C139.96,46.1896 139.68,46.5696 139.54,46.7696Z" style="fill:rgb(8,145,86);fill-rule:nonzero;"/>
    <path d="M138.38,48.5796C138.51,48.3796 138.76,47.9596 138.88,47.7496C138.76,47.9596 138.51,48.3796 138.38,48.5796Z" style="fill:rgb(8,145,86);fill-rule:nonzero;"/>
    <path d="M137.07,51.1696C137.18,50.9396 137.41,50.4696 137.52,50.2396C137.41,50.4696 137.18,50.9396 137.07,51.1696Z" style="fill:rgb(8,145,86);fill-rule:nonzero;"/>
    <path d="M136.09,52.9996C136.21,52.7996 136.46,52.3996 136.58,52.1996C136.46,52.3996 136.21,52.7996 136.09,52.9996Z" style="fill:rgb(8,145,86);fill-rule:nonzero;"/>
    <path d="M135.53,53.7596C135.67,53.5696 135.95,53.1896 136.09,52.9996C135.95,53.1896 135.67,53.5696 135.53,53.7596Z" style="fill:rgb(8,145,86);fill-rule:nonzero;"/>
    <path d="M134.2,55.9196C134.36,55.6196 134.7,55.0096 134.87,54.6996C134.7,55.0096 134.36,55.6196 134.2,55.9196Z" style="fill:rgb(8,145,86);fill-rule:nonzero;"/>
    <path d="M133.29,57.8596C133.39,57.6596 133.57,57.2696 133.67,57.0696C133.57,57.2696 133.39,57.6596 133.29,57.8596Z" style="fill:rgb(8,145,86);fill-rule:nonzero;"/>
    <path d="M131.92,60.0696C132.26,59.5096 132.95,58.4096 133.29,57.8596C132.95,58.4096 132.26,59.5096 131.92,60.0696Z" style="fill:rgb(8,145,86);fill-rule:nonzero;"/>
    <path d="M131.37,60.8696C131.51,60.6696 131.78,60.2696 131.92,60.0696C131.78,60.2696 131.51,60.6696 131.37,60.8696Z" style="fill:rgb(8,145,86);fill-rule:nonzero;"/>
    <path d="M130.34,62.5796C130.41,62.4596 130.55,62.2096 130.62,62.0896C130.55,62.2096 130.41,62.4596 130.34,62.5796Z" style="fill:rgb(8,145,86);fill-rule:nonzero;"/>
    <path d="M129.22,64.8296C129.28,64.6896 129.42,64.4096 129.49,64.2696C129.42,64.4096 129.28,64.6896 129.22,64.8296Z" style="fill:rgb(8,145,86);fill-rule:nonzero;"/>
    <path d="M127.8,67.2696C128.15,66.6596 128.86,65.4396 129.22,64.8296L129.29,65.9996C128.92,66.3196 128.17,66.9596 127.8,67.2696Z" style="fill:rgb(8,145,86);fill-rule:nonzero;"/>
    <path d="M127.41,67.8196C127.51,67.6796 127.7,67.4096 127.8,67.2696C127.7,67.4096 127.51,67.6796 127.41,67.8196Z" style="fill:rgb(8,145,86);fill-rule:nonzero;"/>
    <path d="M126.13,70.1496C126.31,69.7596 126.68,68.9796 126.86,68.5896C126.68,68.9796 126.31,69.7596 126.13,70.1496Z" style="fill:rgb(8,145,86);fill-rule:nonzero;"/>
    <path d="M125.09,71.9896C125.21,71.7896 125.46,71.3896 125.59,71.1896C125.46,71.3896 125.21,71.7896 125.09,71.9896Z" style="fill:rgb(8,145,86);fill-rule:nonzero;"/>
    <path d="M124.54,72.7696C124.68,72.5696 124.95,72.1796 125.09,71.9896C124.95,72.1796 124.68,72.5696 124.54,72.7696Z" style="fill:rgb(8,145,86);fill-rule:nonzero;"/>
    <path d="M123.39,74.5596C123.51,74.3596 123.76,73.9496 123.89,73.7496C123.76,73.9496 123.51,74.3596 123.39,74.5596Z" style="fill:rgb(8,145,86);fill-rule:nonzero;"/>
    <path d="M122.19,76.6596C122.25,76.5596 122.37,76.3396 122.43,76.2396C122.37,76.3396 122.25,76.5596 122.19,76.6596Z" style="fill:rgb(8,145,86);fill-rule:nonzero;"/>
    <path d="M121.14,78.5496C121.22,78.4096 121.38,78.1296 121.46,77.9896C121.38,78.1296 121.22,78.4096 121.14,78.5496Z" style="fill:rgb(8,145,86);fill-rule:nonzero;"/>
    <path d="M119.25,81.7796C119.33,81.6496 119.49,81.3696 119.57,81.2296C119.49,81.3696 119.33,81.6496 119.25,81.7796Z" style="fill:rgb(8,145,86);fill-rule:nonzero;"/>
    <path d="M118.19,83.6296C118.28,83.4696 118.46,83.1596 118.55,83.0096C118.46,83.1596 118.28,83.4696 118.19,83.6296Z" style="fill:rgb(8,145,86);fill-rule:nonzero;"/>
    <path d="M116.9,85.8796C117.01,85.6896 117.23,85.2996 117.35,85.0996C117.23,85.2996 117.01,85.6896 116.9,85.8796Z" style="fill:rgb(8,145,86);fill-rule:nonzero;"/>
    <path d="M116.5,86.5496C116.6,86.3896 116.8,86.0496 116.9,85.8796C116.8,86.0496 116.6,86.3896 116.5,86.5496Z" style="fill:rgb(8,145,86);fill-rule:nonzero;"/>
    <path d="M115.34,88.5096C115.38,88.4396 115.46,88.2996 115.5,88.2296C115.46,88.2996 115.38,88.4396 115.34,88.5096Z" style="fill:rgb(8,145,86);fill-rule:nonzero;"/>
    <path d="M114.32,90.8796C114.36,90.6996 114.43,90.3496 114.47,90.1796C114.43,90.3496 114.36,90.6996 114.32,90.8796Z" style="fill:rgb(8,145,86);fill-rule:nonzero;"/>
    <path d="M112.86,93.0496C113.22,92.5096 113.95,91.4196 114.32,90.8796C113.95,91.4196 113.22,92.5096 112.86,93.0496Z" style="fill:rgb(8,145,86);fill-rule:nonzero;"/>
    <path d="M112.34,93.8296C112.47,93.6396 112.73,93.2496 112.86,93.0496C112.73,93.2496 112.47,93.6396 112.34,93.8296Z" style="fill:rgb(8,145,86);fill-rule:nonzero;"/>
    <path d="M111.32,95.4896C111.39,95.3696 111.53,95.1296 111.6,95.0096C111.53,95.1296 111.39,95.3696 111.32,95.4896Z" style="fill:rgb(8,145,86);fill-rule:nonzero;"/>
    <path d="M109.93,97.9596C110.03,97.7796 110.23,97.4296 110.33,97.2496C110.23,97.4296 110.03,97.7796 109.93,97.9596Z" style="fill:rgb(8,145,86);fill-rule:nonzero;"/>
    <path d="M109.56,98.5796C109.65,98.4296 109.83,98.1096 109.93,97.9596C109.83,98.1096 109.65,98.4296 109.56,98.5796Z" style="fill:rgb(8,145,86);fill-rule:nonzero;"/>
    <path d="M108.4,100.55C108.44,100.48 108.52,100.34 108.57,100.27C108.52,100.34 108.44,100.48 108.4,100.55Z" style="fill:rgb(8,145,86);fill-rule:nonzero;"/>
    <path d="M107.29,102.46C107.32,102.4 107.39,102.29 107.42,102.23C107.39,102.29 107.32,102.4 107.29,102.46Z" style="fill:rgb(8,145,86);fill-rule:nonzero;"/>
    <path d="M214.02,225.86C214.19,225.58 214.55,225.02 214.72,224.75C214.55,225.02 214.19,225.58 214.02,225.86Z" style="fill:rgb(8,145,86);fill-rule:nonzero;"/>
    <path d="M213.58,226.64C213.63,226.56 213.72,226.39 213.76,226.31C213.72,226.39 213.63,226.56 213.58,226.64Z" style="fill:rgb(8,145,86);fill-rule:nonzero;"/>
    <path d="M211.72,230.02C211.8,229.89 211.95,229.63 212.02,229.5C211.95,229.63 211.8,229.89 211.72,230.02Z" style="fill:rgb(8,145,86);fill-rule:nonzero;"/>
    <path d="M210.67,231.87C210.75,231.72 210.92,231.43 211.01,231.28C210.92,231.43 210.75,231.72 210.67,231.87Z" style="fill:rgb(8,145,86);fill-rule:nonzero;"/>
    <path d="M209.66,233.64C209.71,233.56 209.8,233.4 209.84,233.32C209.8,233.4 209.71,233.56 209.66,233.64Z" style="fill:rgb(8,145,86);fill-rule:nonzero;"/>
    <path d="M208.27,236.07C208.36,235.91 208.54,235.59 208.63,235.44C208.54,235.59 208.36,235.91 208.27,236.07Z" style="fill:rgb(8,145,86);fill-rule:nonzero;"/>
    <path d="M207.87,236.74C207.97,236.57 208.17,236.24 208.27,236.07C208.17,236.24 207.97,236.57 207.87,236.74Z" style="fill:rgb(8,145,86);fill-rule:nonzero;"/>
    <path d="M206.54,239.02C206.62,238.89 206.78,238.61 206.86,238.48C206.78,238.61 206.62,238.89 206.54,239.02Z" style="fill:rgb(8,145,86);fill-rule:nonzero;"/>
    <path d="M205.5,240.8C205.6,240.62 205.82,240.25 205.92,240.07C205.82,240.25 205.6,240.62 205.5,240.8Z" style="fill:rgb(8,145,86);fill-rule:nonzero;"/>
    <path d="M203.62,244.07C203.69,243.94 203.84,243.69 203.91,243.57C203.84,243.69 203.69,243.94 203.62,244.07Z" style="fill:rgb(8,145,86);fill-rule:nonzero;"/>
    <path d="M202.56,245.86C202.67,245.67 202.89,245.31 202.99,245.12C202.89,245.31 202.67,245.67 202.56,245.86Z" style="fill:rgb(8,145,86);fill-rule:nonzero;"/>
    <path d="M200.71,249.06C200.8,248.91 200.97,248.6 201.06,248.45C200.97,248.6 200.8,248.91 200.71,249.06Z" style="fill:rgb(8,145,86);fill-rule:nonzero;"/>
    <path d="M199.68,250.9C199.75,250.78 199.89,250.53 199.96,250.41C199.89,250.53 199.75,250.78 199.68,250.9Z" style="fill:rgb(8,145,86);fill-rule:nonzero;"/>
    <path d="M198.59,252.81C198.67,252.67 198.83,252.39 198.91,252.25C198.83,252.39 198.67,252.67 198.59,252.81Z" style="fill:rgb(8,145,86);fill-rule:nonzero;"/>
    <path d="M196.66,256.09C196.75,255.93 196.93,255.62 197.02,255.47C196.93,255.62 196.75,255.93 196.66,256.09Z" style="fill:rgb(8,145,86);fill-rule:nonzero;"/>
    <path d="M195.69,257.84C195.75,257.72 195.88,257.49 195.95,257.37C195.88,257.49 195.75,257.72 195.69,257.84Z" style="fill:rgb(8,145,86);fill-rule:nonzero;"/>
    <path d="M194.58,259.76C194.65,259.64 194.8,259.39 194.87,259.26C194.8,259.39 194.65,259.64 194.58,259.76Z" style="fill:rgb(8,145,86);fill-rule:nonzero;"/>
    <path d="M192.6,263.15C192.68,263.02 192.84,262.76 192.91,262.63C192.84,262.76 192.68,263.02 192.6,263.15Z" style="fill:rgb(8,145,86);fill-rule:nonzero;"/>
    <path d="M191.59,264.85C191.69,264.67 191.9,264.32 192,264.14C191.9,264.32 191.69,264.67 191.59,264.85Z" style="fill:rgb(8,145,86);fill-rule:nonzero;"/>
    <path d="M189.82,267.94C189.88,267.83 190.02,267.59 190.08,267.48C190.02,267.59 189.88,267.83 189.82,267.94Z" style="fill:rgb(8,145,86);fill-rule:nonzero;"/>
    <path d="M188.76,269.83C188.82,269.72 188.94,269.51 189,269.4C188.94,269.51 188.82,269.72 188.76,269.83Z" style="fill:rgb(8,145,86);fill-rule:nonzero;"/>
    <path d="M187.64,271.76C187.71,271.65 187.85,271.41 187.92,271.3C187.85,271.41 187.71,271.65 187.64,271.76Z" style="fill:rgb(8,145,86);fill-rule:nonzero;"/>
    <path d="M185.65,275.09C185.76,274.91 185.96,274.55 186.07,274.38C185.96,274.55 185.76,274.91 185.65,275.09Z" style="fill:rgb(8,145,86);fill-rule:nonzero;"/>
    <path d="M184.76,276.74C184.83,276.61 184.98,276.33 185.06,276.19C184.98,276.33 184.83,276.61 184.76,276.74Z" style="fill:rgb(8,145,86);fill-rule:nonzero;"/>
    <path d="M183.39,279.12C183.47,278.97 183.65,278.67 183.73,278.52C183.65,278.67 183.47,278.97 183.39,279.12Z" style="fill:rgb(8,145,86);fill-rule:nonzero;"/>
    <path d="M183.06,279.69C183.14,279.55 183.3,279.26 183.39,279.12C183.3,279.26 183.14,279.55 183.06,279.69Z" style="fill:rgb(8,145,86);fill-rule:nonzero;"/>
    <path d="M346.42,3.21955C346.5,3.34955 346.65,3.62955 346.73,3.76955C346.65,3.62955 346.5,3.34955 346.42,3.21955Z" style="fill:rgb(16,152,91);fill-rule:nonzero;"/>
    <path d="M354.54,17.3496C354.59,17.4296 354.67,17.5796 354.72,17.6496C354.67,17.5796 354.59,17.4296 354.54,17.3496Z" style="fill:rgb(16,152,91);fill-rule:nonzero;"/>
    <path d="M369.55,43.3596C369.59,43.4296 369.68,43.5696 369.72,43.6496C369.68,43.5696 369.59,43.4296 369.55,43.3596Z" style="fill:rgb(16,152,91);fill-rule:nonzero;"/>
    <path d="M372.44,48.2496C372.52,48.3796 372.67,48.6496 372.75,48.7896C372.67,48.6496 372.52,48.3796 372.44,48.2496Z" style="fill:rgb(16,152,91);fill-rule:nonzero;"/>
    <path d="M376.53,55.3696C376.58,55.4396 376.66,55.5796 376.7,55.6596C376.66,55.5796 376.58,55.4396 376.53,55.3696Z" style="fill:rgb(16,152,91);fill-rule:nonzero;"/>
    <path d="M380.48,62.2396C380.56,62.3696 380.71,62.6296 380.79,62.7596C380.71,62.6296 380.56,62.3696 380.48,62.2396Z" style="fill:rgb(16,152,91);fill-rule:nonzero;"/>
    <path d="M384.51,69.2196C384.59,69.3496 384.74,69.6196 384.82,69.7496C384.74,69.6196 384.59,69.3496 384.51,69.2196Z" style="fill:rgb(16,152,91);fill-rule:nonzero;"/>
    <path d="M420.57,131.65C437.96,161.78 455.46,191.86 472.71,222.08C472.79,222.21 472.95,222.49 473.03,222.62C473.43,223.28 474.23,224.59 474.62,225.24C474.7,225.37 474.86,225.64 474.94,225.77L475.74,227.14C475.79,227.23 475.89,227.42 475.95,227.51L476.95,229.25C477.05,229.42 477.24,229.77 477.34,229.94C477.43,230.09 477.61,230.4 477.7,230.56L478.68,232.26C478.72,232.33 478.8,232.47 478.84,232.54L479.82,234.22C479.86,234.29 479.94,234.42 479.98,234.49L480.96,236.19C481.06,236.36 481.25,236.69 481.35,236.86C481.44,237.03 481.63,237.36 481.72,237.52L482.73,239.3C482.87,239.65 483.15,240.33 483.29,240.67L483.57,241.22L483.7,241.51L483.92,241.8L484.51,242.69C484.72,243.02 485.13,243.68 485.34,244.01C485.46,244.21 485.72,244.61 485.84,244.81L486.5,245.86C486.7,246.31 487.1,247.22 487.3,247.67L487.6,248.21L487.71,248.42L487.8,248.55C488.24,249.2 489.11,250.51 489.55,251.16C489.66,251.34 489.88,251.7 490,251.88L490.6,252.88C490.69,253.04 490.87,253.35 490.96,253.5L491.97,255.27C492.06,255.43 492.24,255.75 492.33,255.91C492.42,256.07 492.6,256.38 492.69,256.54L493.69,258.25C493.73,258.33 493.82,258.48 493.87,258.55L494.78,260.15C494.84,260.25 494.96,260.46 495.02,260.56L495.94,262.17C496.05,262.35 496.26,262.72 496.37,262.9C496.46,263.06 496.65,263.38 496.74,263.54C497.48,264.77 498.19,266.02 498.85,267.3C498.95,267.51 499.15,267.93 499.24,268.14L499.7,269.18C499.82,269.38 500.06,269.79 500.17,269.99C500.32,270.19 500.61,270.57 500.76,270.76L501.45,271.74C501.57,271.93 501.81,272.31 501.94,272.51L502.95,274.26C503.04,274.42 503.22,274.74 503.31,274.9C503.4,275.06 503.58,275.37 503.68,275.53L504.68,277.25C504.72,277.33 504.8,277.47 504.84,277.54L505.79,279.2C505.83,279.27 505.91,279.4 505.95,279.47L506.92,281.16C507.02,281.33 507.22,281.67 507.32,281.85C507.42,282.02 507.62,282.36 507.71,282.53L508.71,284.25C508.75,284.32 508.82,284.46 508.86,284.53L509.92,286.51L509.91,287.41C484.89,280.22 460.27,271.69 435.18,264.76C412.41,257.41 389.43,250.72 366.66,243.41C369.83,241.89 373.22,240.92 376.39,239.42C376.8,238.07 377.23,236.73 377.65,235.4C381.6,232.92 386.06,231.43 389.95,228.86C390.1,225.57 390.09,222.29 390.08,219.01C394.44,215.5 399.06,212.25 402.65,207.9C403.01,203.62 399.78,198.61 403.11,195C413.35,182.08 419.56,166.07 420.67,149.62C422.5,143.6 419.21,137.64 420.57,131.65Z" style="fill:rgb(249,201,65);fill-rule:nonzero;"/>
    <path d="M509.91,287.41L510.43,287.43L510.72,288.19L510.13,288.23L509.91,287.41Z" style="fill:rgb(249,201,65);fill-rule:nonzero;"/>
    <path d="M257.34,157.32C257.42,157.45 257.58,157.72 257.66,157.86C257.58,157.72 257.42,157.45 257.34,157.32Z" style="fill:rgb(227,183,58);fill-rule:nonzero;"/>
    <path d="M259.19,160.53C259.26,160.65 259.39,160.88 259.46,161C259.39,160.88 259.26,160.65 259.19,160.53Z" style="fill:rgb(227,183,58);fill-rule:nonzero;"/>
    <path d="M260.28,162.47C260.33,162.55 260.42,162.72 260.47,162.8C260.42,162.72 260.33,162.55 260.28,162.47Z" style="fill:rgb(227,183,58);fill-rule:nonzero;"/>
    <path d="M261.48,164.56C261.57,164.71 261.74,165.01 261.83,165.16C261.74,165.01 261.57,164.71 261.48,164.56Z" style="fill:rgb(227,183,58);fill-rule:nonzero;"/>
    <path d="M261.83,165.16C261.92,165.33 262.11,165.65 262.21,165.81C262.11,165.65 261.92,165.33 261.83,165.16Z" style="fill:rgb(227,183,58);fill-rule:nonzero;"/>
    <path d="M263.16,167.44C263.21,167.53 263.32,167.71 263.37,167.8C263.32,167.71 263.21,167.53 263.16,167.44Z" style="fill:rgb(227,183,58);fill-rule:nonzero;"/>
    <path d="M265.34,171.21C265.43,171.37 265.6,171.68 265.69,171.83C265.6,171.68 265.43,171.37 265.34,171.21Z" style="fill:rgb(227,183,58);fill-rule:nonzero;"/>
    <path d="M267.23,174.48C267.32,174.63 267.49,174.91 267.57,175.05C267.49,174.91 267.32,174.63 267.23,174.48Z" style="fill:rgb(227,183,58);fill-rule:nonzero;"/>
    <path d="M268.43,176.5C268.63,176.83 269.02,177.48 269.22,177.81C269.02,177.48 268.63,176.83 268.43,176.5Z" style="fill:rgb(227,183,58);fill-rule:nonzero;"/>
    <path d="M269.49,178.29C269.53,178.38 269.63,178.55 269.68,178.63C269.63,178.55 269.53,178.38 269.49,178.29Z" style="fill:rgb(227,183,58);fill-rule:nonzero;"/>
    <path d="M271.44,181.79C271.63,182.05 272.01,182.59 272.2,182.86C272.01,182.59 271.63,182.05 271.44,181.79Z" style="fill:rgb(227,183,58);fill-rule:nonzero;"/>
    <path d="M272.46,183.32C272.5,183.4 272.59,183.57 272.64,183.65C272.59,183.57 272.5,183.4 272.46,183.32Z" style="fill:rgb(227,183,58);fill-rule:nonzero;"/>
    <path d="M275.45,188.72C275.64,189 276.01,189.56 276.2,189.84C276.01,189.56 275.64,189 275.45,188.72Z" style="fill:rgb(227,183,58);fill-rule:nonzero;"/>
    <path d="M276.47,190.31C276.51,190.39 276.61,190.56 276.65,190.64C276.61,190.56 276.51,190.39 276.47,190.31Z" style="fill:rgb(227,183,58);fill-rule:nonzero;"/>
    <path d="M278.23,193.51C278.32,193.66 278.49,193.96 278.58,194.11C278.49,193.96 278.32,193.66 278.23,193.51Z" style="fill:rgb(227,183,58);fill-rule:nonzero;"/>
    <path d="M279.22,195.24C279.32,195.41 279.52,195.77 279.62,195.94C279.52,195.77 279.32,195.41 279.22,195.24Z" style="fill:rgb(227,183,58);fill-rule:nonzero;"/>
    <path d="M280.45,197.4C280.55,197.58 280.76,197.95 280.86,198.13C280.76,197.95 280.55,197.58 280.45,197.4Z" style="fill:rgb(227,183,58);fill-rule:nonzero;"/>
    <path d="M280.86,198.13C280.95,198.28 281.13,198.6 281.22,198.76C281.13,198.6 280.95,198.28 280.86,198.13Z" style="fill:rgb(227,183,58);fill-rule:nonzero;"/>
    <path d="M282.24,200.51C282.28,200.59 282.37,200.73 282.41,200.8C282.37,200.73 282.28,200.59 282.24,200.51Z" style="fill:rgb(227,183,58);fill-rule:nonzero;"/>
    <path d="M283.38,202.47C283.46,202.61 283.62,202.88 283.7,203.02C283.62,202.88 283.46,202.61 283.38,202.47Z" style="fill:rgb(227,183,58);fill-rule:nonzero;"/>
    <path d="M284.31,204.06C284.42,204.24 284.63,204.61 284.74,204.79C284.63,204.61 284.42,204.24 284.31,204.06Z" style="fill:rgb(227,183,58);fill-rule:nonzero;"/>
    <path d="M286.47,207.71C286.64,208 286.99,208.57 287.16,208.86C286.99,208.57 286.64,208 286.47,207.71Z" style="fill:rgb(227,183,58);fill-rule:nonzero;"/>
    <path d="M287.45,209.32C287.5,209.41 287.6,209.57 287.65,209.65C287.6,209.57 287.5,209.41 287.45,209.32Z" style="fill:rgb(227,183,58);fill-rule:nonzero;"/>
    <path d="M289.43,212.46L289.5,212.56L289.56,212.69C289.53,212.63 289.46,212.52 289.43,212.46Z" style="fill:rgb(227,183,58);fill-rule:nonzero;"/>
    <path d="M291.5,216.56C291.59,216.71 291.75,217 291.84,217.15C291.75,217 291.59,216.71 291.5,216.56Z" style="fill:rgb(227,183,58);fill-rule:nonzero;"/>
    <path d="M291.84,217.15C291.94,217.32 292.14,217.66 292.24,217.83C292.14,217.66 291.94,217.32 291.84,217.15Z" style="fill:rgb(227,183,58);fill-rule:nonzero;"/>
    <path d="M293.19,219.44C293.24,219.53 293.34,219.71 293.4,219.8C293.34,219.71 293.24,219.53 293.19,219.44Z" style="fill:rgb(227,183,58);fill-rule:nonzero;"/>
    <path d="M294.06,220.98C305.59,225.22 317.52,228.24 329.17,232.09C341.69,235.8 354.11,239.81 366.66,243.41C389.43,250.72 412.41,257.41 435.18,264.76C434.84,269.63 435.8,274.62 434.59,279.4C433.66,284.05 428.1,284.78 425.81,288.49C395.04,288.5 364.28,288.59 333.52,288.46L332.86,288.41C320.15,265.81 306.93,243.49 294.06,220.98Z" style="fill:rgb(227,183,58);fill-rule:nonzero;"/>
    <path d="M472.71,222.08C472.79,222.21 472.95,222.49 473.03,222.62C472.95,222.49 472.79,222.21 472.71,222.08Z" style="fill:rgb(232,184,53);fill-rule:nonzero;"/>
    <path d="M474.62,225.24C474.7,225.37 474.86,225.64 474.94,225.77C474.86,225.64 474.7,225.37 474.62,225.24Z" style="fill:rgb(232,184,53);fill-rule:nonzero;"/>
    <path d="M475.74,227.14C475.79,227.23 475.89,227.42 475.95,227.51C475.89,227.42 475.79,227.23 475.74,227.14Z" style="fill:rgb(232,184,53);fill-rule:nonzero;"/>
    <path d="M476.95,229.25C477.05,229.42 477.24,229.77 477.34,229.94C477.24,229.77 477.05,229.42 476.95,229.25Z" style="fill:rgb(232,184,53);fill-rule:nonzero;"/>
    <path d="M477.34,229.94C477.43,230.09 477.61,230.4 477.7,230.56C477.61,230.4 477.43,230.09 477.34,229.94Z" style="fill:rgb(232,184,53);fill-rule:nonzero;"/>
    <path d="M478.68,232.26C478.72,232.33 478.8,232.47 478.84,232.54C478.8,232.47 478.72,232.33 478.68,232.26Z" style="fill:rgb(232,184,53);fill-rule:nonzero;"/>
    <path d="M479.82,234.22C479.86,234.29 479.94,234.42 479.98,234.49C479.94,234.42 479.86,234.29 479.82,234.22Z" style="fill:rgb(232,184,53);fill-rule:nonzero;"/>
    <path d="M480.96,236.19C481.06,236.36 481.25,236.69 481.35,236.86C481.25,236.69 481.06,236.36 480.96,236.19Z" style="fill:rgb(232,184,53);fill-rule:nonzero;"/>
    <path d="M481.35,236.86C481.44,237.03 481.63,237.36 481.72,237.52C481.63,237.36 481.44,237.03 481.35,236.86Z" style="fill:rgb(232,184,53);fill-rule:nonzero;"/>
    <path d="M482.73,239.3C482.87,239.65 483.15,240.33 483.29,240.67C483.15,240.33 482.87,239.65 482.73,239.3Z" style="fill:rgb(232,184,53);fill-rule:nonzero;"/>
    <path d="M483.57,241.22C483.66,241.37 483.83,241.66 483.92,241.8L483.7,241.51L483.57,241.22Z" style="fill:rgb(232,184,53);fill-rule:nonzero;"/>
    <path d="M484.51,242.69C484.72,243.02 485.13,243.68 485.34,244.01C485.13,243.68 484.72,243.02 484.51,242.69Z" style="fill:rgb(232,184,53);fill-rule:nonzero;"/>
    <path d="M485.34,244.01C485.46,244.21 485.72,244.61 485.84,244.81C485.72,244.61 485.46,244.21 485.34,244.01Z" style="fill:rgb(232,184,53);fill-rule:nonzero;"/>
    <path d="M486.5,245.86C486.7,246.31 487.1,247.22 487.3,247.67C487.1,247.22 486.7,246.31 486.5,245.86Z" style="fill:rgb(232,184,53);fill-rule:nonzero;"/>
    <path d="M487.6,248.21C487.65,248.3 487.75,248.47 487.8,248.55L487.71,248.42L487.6,248.21Z" style="fill:rgb(232,184,53);fill-rule:nonzero;"/>
    <path d="M489.55,251.16C489.66,251.34 489.88,251.7 490,251.88C489.88,251.7 489.66,251.34 489.55,251.16Z" style="fill:rgb(232,184,53);fill-rule:nonzero;"/>
    <path d="M490.6,252.88C490.69,253.04 490.87,253.35 490.96,253.5C490.87,253.35 490.69,253.04 490.6,252.88Z" style="fill:rgb(232,184,53);fill-rule:nonzero;"/>
    <path d="M491.97,255.27C492.06,255.43 492.24,255.75 492.33,255.91C492.24,255.75 492.06,255.43 491.97,255.27Z" style="fill:rgb(232,184,53);fill-rule:nonzero;"/>
    <path d="M492.33,255.91C492.42,256.07 492.6,256.38 492.69,256.54C492.6,256.38 492.42,256.07 492.33,255.91Z" style="fill:rgb(232,184,53);fill-rule:nonzero;"/>
    <path d="M493.69,258.25C493.73,258.33 493.82,258.48 493.87,258.55C493.82,258.48 493.73,258.33 493.69,258.25Z" style="fill:rgb(232,184,53);fill-rule:nonzero;"/>
    <path d="M494.78,260.15C494.84,260.25 494.96,260.46 495.02,260.56C494.96,260.46 494.84,260.25 494.78,260.15Z" style="fill:rgb(232,184,53);fill-rule:nonzero;"/>
    <path d="M495.94,262.17C496.05,262.35 496.26,262.72 496.37,262.9C496.26,262.72 496.05,262.35 495.94,262.17Z" style="fill:rgb(232,184,53);fill-rule:nonzero;"/>
    <path d="M496.37,262.9C496.46,263.06 496.65,263.38 496.74,263.54C496.65,263.38 496.46,263.06 496.37,262.9Z" style="fill:rgb(232,184,53);fill-rule:nonzero;"/>
    <path d="M435.18,264.76C460.27,271.69 484.89,280.22 509.91,287.41L510.13,288.23C482.04,288.87 453.91,288.34 425.81,288.49C428.1,284.78 433.66,284.05 434.59,279.4C435.8,274.62 434.84,269.63 435.18,264.76Z" style="fill:rgb(232,184,53);fill-rule:nonzero;"/>
    <path d="M498.85,267.3C498.95,267.51 499.15,267.93 499.24,268.14C499.15,267.93 498.95,267.51 498.85,267.3Z" style="fill:rgb(232,184,53);fill-rule:nonzero;"/>
    <path d="M499.7,269.18C499.82,269.38 500.06,269.79 500.17,269.99C500.06,269.79 499.82,269.38 499.7,269.18Z" style="fill:rgb(232,184,53);fill-rule:nonzero;"/>
    <path d="M500.17,269.99C500.32,270.19 500.61,270.57 500.76,270.76C500.61,270.57 500.32,270.19 500.17,269.99Z" style="fill:rgb(232,184,53);fill-rule:nonzero;"/>
    <path d="M501.45,271.74C501.57,271.93 501.81,272.31 501.94,272.51C501.81,272.31 501.57,271.93 501.45,271.74Z" style="fill:rgb(232,184,53);fill-rule:nonzero;"/>
    <path d="M502.95,274.26C503.04,274.42 503.22,274.74 503.31,274.9C503.22,274.74 503.04,274.42 502.95,274.26Z" style="fill:rgb(232,184,53);fill-rule:nonzero;"/>
    <path d="M503.31,274.9C503.4,275.06 503.58,275.37 503.68,275.53C503.58,275.37 503.4,275.06 503.31,274.9Z" style="fill:rgb(232,184,53);fill-rule:nonzero;"/>
    <path d="M504.68,277.25C504.72,277.33 504.8,277.47 504.84,277.54C504.8,277.47 504.72,277.33 504.68,277.25Z" style="fill:rgb(232,184,53);fill-rule:nonzero;"/>
    <path d="M505.79,279.2C505.83,279.27 505.91,279.4 505.95,279.47C505.91,279.4 505.83,279.27 505.79,279.2Z" style="fill:rgb(232,184,53);fill-rule:nonzero;"/>
    <path d="M506.92,281.16C507.02,281.33 507.22,281.67 507.32,281.85C507.22,281.67 507.02,281.33 506.92,281.16Z" style="fill:rgb(232,184,53);fill-rule:nonzero;"/>
    <path d="M507.32,281.85C507.42,282.02 507.62,282.36 507.71,282.53C507.62,282.36 507.42,282.02 507.32,281.85Z" style="fill:rgb(232,184,53);fill-rule:nonzero;"/>
    <path d="M508.71,284.25C508.75,284.32 508.82,284.46 508.86,284.53C508.82,284.46 508.75,284.32 508.71,284.25Z" style="fill:rgb(232,184,53);fill-rule:nonzero;"/>
    <path d="M509.92,286.51C510.05,286.74 510.3,287.2 510.43,287.43L509.91,287.41L509.92,286.51Z" style="fill:rgb(232,184,53);fill-rule:nonzero;"/>
    <path d="M147.21,341.08C157.52,323.5 167.32,305.59 177.97,288.22C229.6,288.41 281.24,287.93 332.86,288.41L333.52,288.46C307.41,289.3 281.23,288.24 255.12,288.9C250.14,292.11 246.82,297.31 242.05,300.81C237.62,304.04 234.36,308.54 230.13,311.99C224.2,316.36 219.79,322.42 213.77,326.7C206.81,334.07 198.78,340.28 191.76,347.61C186.5,351.65 182.1,356.64 177.2,361.09C171.81,365 167.68,370.3 162.64,374.62C162.51,374.73 162.26,374.95 162.13,375.07C161.86,375.28 161.33,375.72 161.06,375.93C160.93,376.04 160.69,376.24 160.56,376.35C156.59,379.42 153.55,383.47 149.65,386.62C149.52,386.73 149.27,386.94 149.15,387.04C149.02,387.15 148.77,387.36 148.64,387.46C142.95,392.13 138.39,398.04 132.42,402.39C126.41,408.35 119.63,413.47 113.92,419.75C105.48,426.69 98.18,434.88 89.48,441.53C91.64,436.82 94.5,432.5 97.01,427.99C113.75,399.02 130.47,370.05 147.21,341.08Z" style="fill:rgb(41,106,217);fill-rule:nonzero;"/>
    <path d="M89.04,442.17C89.15,442.01 89.37,441.69 89.48,441.53L89.45,442.18L89.04,442.17Z" style="fill:rgb(41,106,217);fill-rule:nonzero;"/>
    <path id="#2a71e9ff" d="M333.52,288.46C364.28,288.59 395.04,288.5 425.81,288.49C453.91,288.34 482.04,288.87 510.13,288.23L510.72,288.19L511.12,288.3L511.12,288.38C481.46,339.65 451.89,390.98 422.23,442.26C311.3,442.23 200.37,442.36 89.45,442.18L89.48,441.53C98.18,434.88 105.48,426.69 113.92,419.75C119.63,413.47 126.41,408.35 132.42,402.39C138.39,398.04 142.95,392.13 148.64,387.46C148.77,387.36 149.02,387.15 149.15,387.04C149.27,386.94 149.52,386.73 149.65,386.62C153.55,383.47 156.59,379.42 160.56,376.35C160.69,376.24 160.93,376.04 161.06,375.93C161.33,375.72 161.86,375.28 162.13,375.07C162.26,374.95 162.51,374.73 162.64,374.62C167.68,370.3 171.81,365 177.2,361.09C182.1,356.64 186.5,351.65 191.76,347.61C198.78,340.28 206.81,334.07 213.77,326.7C219.79,322.42 224.2,316.36 230.13,311.99C234.36,308.54 237.62,304.04 242.05,300.81C246.82,297.31 250.14,292.11 255.12,288.9C281.23,288.24 307.41,289.3 333.52,288.46Z" style="fill:rgb(42,113,233);fill-rule:nonzero;"/>
    <path d="M162.13,375.07C162.26,374.95 162.51,374.73 162.64,374.62C162.51,374.73 162.26,374.95 162.13,375.07Z" style="fill:rgb(40,110,230);fill-rule:nonzero;"/>
    <path d="M161.06,375.93C161.33,375.72 161.86,375.28 162.13,375.07C161.86,375.28 161.33,375.72 161.06,375.93Z" style="fill:rgb(40,110,230);fill-rule:nonzero;"/>
    <path d="M160.56,376.35C160.69,376.24 160.93,376.04 161.06,375.93C160.93,376.04 160.69,376.24 160.56,376.35Z" style="fill:rgb(40,110,230);fill-rule:nonzero;"/>
    <path d="M149.15,387.04C149.27,386.94 149.52,386.73 149.65,386.62C149.52,386.73 149.27,386.94 149.15,387.04Z" style="fill:rgb(40,110,230);fill-rule:nonzero;"/>
    <path d="M148.64,387.46C148.77,387.36 149.02,387.15 149.15,387.04C149.02,387.15 148.77,387.36 148.64,387.46Z" style="fill:rgb(40,110,230);fill-rule:nonzero;"/>
</svg>
